<?xml version="1.0" encoding="utf-8"?>
<!-- Generator: Adobe Illustrator 25.0.0, SVG Export Plug-In . SVG Version: 6.00 Build 0)  -->
<!DOCTYPE svg PUBLIC "-//W3C//DTD SVG 1.1//EN" "http://www.w3.org/Graphics/SVG/1.1/DTD/svg11.dtd" [
	<!ENTITY ns_extend "http://ns.adobe.com/Extensibility/1.0/">
	<!ENTITY ns_ai "http://ns.adobe.com/AdobeIllustrator/10.0/">
	<!ENTITY ns_graphs "http://ns.adobe.com/Graphs/1.0/">
	<!ENTITY ns_vars "http://ns.adobe.com/Variables/1.0/">
	<!ENTITY ns_imrep "http://ns.adobe.com/ImageReplacement/1.0/">
	<!ENTITY ns_sfw "http://ns.adobe.com/SaveForWeb/1.0/">
	<!ENTITY ns_custom "http://ns.adobe.com/GenericCustomNamespace/1.0/">
	<!ENTITY ns_adobe_xpath "http://ns.adobe.com/XPath/1.0/">
]>
<svg version="1.1" id="Layer_1" xmlns:x="&ns_extend;" xmlns:i="&ns_ai;" xmlns:graph="&ns_graphs;"
	 xmlns="http://www.w3.org/2000/svg" xmlns:xlink="http://www.w3.org/1999/xlink" x="0px" y="0px" width="336px" height="116px"
	 viewBox="0 0 336 116" enable-background="new 0 0 336 116" xml:space="preserve">
<metadata>
	<sfw  xmlns="&ns_sfw;">
		<slices></slices>
		<sliceSourceBounds  bottomLeftOrigin="true" height="115.6813126" width="335.5725708" x="0" y="0.3186871"></sliceSourceBounds>
	</sfw>
</metadata>
<g id="quorum-cyber-logo-dark">
	<path id="Path" fill="#444A50" d="M312.9599915,79.5988998l-0.0499878,0.3699951
		c-0.1400146,1.5100021-1,2.0800018-2.5899963,2.0800018c-4.4299927,0.0899963-6.5500183,3.3000031-6.5500183,9v11
		c0.0705566,0.6449661-0.155304,1.287117-0.6141052,1.7458954c-0.4587708,0.4587784-1.1009216,0.6846542-1.7458801,0.6141052
		h-0.5599976c-0.644989,0.070549-1.2871094-0.1553268-1.7459106-0.6141052
		c-0.4587708-0.4587784-0.6846313-1.1009293-0.6141052-1.7458954V79.7388992
		c-0.0705261-0.6449738,0.1553345-1.287117,0.6141052-1.745903c0.4588013-0.4587784,1.1009216-0.6846466,1.7459106-0.6140976
		h0.5599976c0.630249-0.0847473,1.2647705,0.1220474,1.7240601,0.5618668s0.6933289,1.0648193,0.6359253,1.6981277v2.2700043
		c0.9851685-3.0022049,3.842804-4.9862289,7-4.8600006c0.6650696-0.0620346,1.3189392,0.2022324,1.7541199,0.7089539
		S313.1217651,78.9508362,312.9599915,79.5988998L312.9599915,79.5988998z"/>
	<path id="Shape" fill="#444A50" d="M280.0700073,76.8588943c7.8200073,0,12.8200073,5.2300034,13.1499939,13
		c0.0868225,0.6486664-0.1337585,1.3007202-0.5965271,1.7634811c-0.4627686,0.4627686-1.1148071,0.6833344-1.7634888,0.5965195
		h-19.1599731c0.1900024,5.2300034,3.4400024,8.2000046,8.6799927,8.2000046
		c2.3666687,0.1464233,4.6922913-0.6684418,6.4499817-2.2600021c1-0.9000015,1.7000122-1.6500015,3-1.3199997l0.5700073,0.1399994
		c1.6499939,0.4199982,2,1.3199997,1.0800171,2.6399994c-2.3600159,3.4899979-6.1700134,5.230011-11.2200012,5.230011
		c-8.3500061,0.0099869-13.8200073-5.5500107-13.8200073-13.9900131
		C266.4400024,82.5688934,272.0100098,76.8588943,280.0700073,76.8588943z M280.1600037,81.1088943
		c-4.519989,0-7.6799927,2.3499985-8.3000183,7h16.3600159C287.8399963,83.8188934,284.9200134,81.1088943,280.1600037,81.1088943z"
		/>
	<path id="Shape_1_" fill="#444A50" d="M240.1999969,99.1988983v2.7399979
		c0.0705566,0.6449661-0.1553192,1.287117-0.6141052,1.7458954c-0.4587708,0.458786-1.1009216,0.6846542-1.7458954,0.6141052
		h-0.5699921c-0.6433411,0.067276-1.2825775-0.1600494-1.7389984-0.6184006
		c-0.4564056-0.4583588-0.681015-1.0985565-0.6110077-1.7416v-31c-0.0700073-0.6430435,0.1546021-1.2832413,0.6110077-1.7416
		c0.4564209-0.4583511,1.0956573-0.6856766,1.7389984-0.6184006h0.5699921
		c0.6449738-0.070549,1.2871246,0.1553192,1.7458954,0.6141052c0.458786,0.4587784,0.6846619,1.1009293,0.6141052,1.7458954
		v11.6699982c1.5-3.6699982,5.2799988-5.75,9.5200043-5.75c6.6399841,0,12.3899841,4.7200012,12.3899841,14
		s-5.75,14.090004-12.3499908,14.090004C245.5200043,104.9488983,241.6999969,102.8288956,240.1999969,99.1988983z
		 M256.8299866,90.8588943c0-5.8899994-3.3899841-9.5199966-8.4299927-9.5199966
		c-5.0399933,0-8.3499908,3.5800018-8.3499908,9.5199966c0,5.9400024,3.3999939,9.5699997,8.4400024,9.5699997
		C253.5299988,100.428894,256.8299866,96.7988968,256.8299866,90.8588943z"/>
	<path id="Path_1_" fill="#444A50" d="M211.6300049,110.2788925l2.7299957-6.1299973l-10.4600067-24.0400009
		c-0.7099915-1.5999985,0-2.7299957,1.7400055-2.7299957h0.8999939c1.2181091-0.0626678,2.3309784,0.6873932,2.730011,1.8399963
		l7.9199982,19.2300034l7.9199982-19.2300034c0.3990326-1.1526031,1.5118866-1.9026642,2.7299957-1.8399963h0.8000031
		c1.7899933,0,2.5500031,1.1299973,1.8399963,2.7299957L217,111.268898
		c-0.4131622,1.1583405-1.5545197,1.8932419-2.7799988,1.7900009h-0.8999939
		C211.6300049,113.1088943,210.9199982,111.928894,211.6300049,110.2788925z"/>
	<path id="Path_2_" fill="#444A50" d="M169.3600006,87.3688965c0-12.1100006,7.9199982-17.5800018,16.0800018-17.5800018
		c5.5599976,0,11.6399994,2.4500046,14.3199921,9.2400055c0.6200104,1.5599976-0.1799927,2.6399994-1.7399902,2.9199982
		l-0.75,0.1399994c-1.4600067,0.2900009-2.1699982-0.3300018-2.8800049-1.6900024
		c-1.6088715-3.4711914-5.1252747-5.6556778-8.9499969-5.5599976c-6.2700043,0-10.4700012,4.7999954-10.4700012,12.5299988
		s4.1000061,12.4499969,10.4700012,12.4499969c3.903595,0.0883255,7.4677734-2.2085953,9-5.7999954
		c0.6600037-1.3700027,1.4599915-2,2.8699951-1.7000046l0.75,0.1399994
		c1.5599976,0.2900009,2.2700043,1.6500015,1.4199982,3.6800003c-2.7299957,6.4100037-8.6699982,8.7700043-14.0899963,8.7700043
		C177.2799988,104.9088974,169.3600006,99.8188934,169.3600006,87.3688965z"/>
	<path id="Path_3_" fill="#444A50" d="M325.9500122,26.7188969c6.7799988,0,9.6099854,4,9.6099854,13.7600002v11.3600006
		c0.0700073,0.6430397-0.1546021,1.2832413-0.6110229,1.7415962c-0.4563904,0.4583549-1.0956421,0.6856766-1.7389832,0.6184006
		h-0.5699768c-0.644989,0.070549-1.2871399-0.1553192-1.7459106-0.6141014s-0.6846619-1.1009293-0.6141052-1.7458954V40.9088974
		c0-6.8800011-1.7900085-9.6200008-6.2600098-9.6200008s-6.5599976,2.8299999-6.5599976,9.5199986v11
		c0.0700073,0.6430435-0.1546021,1.2832451-0.6109924,1.7416c-0.4564209,0.4583549-1.0956726,0.6856766-1.7390137,0.6184006
		h-0.5699768c-0.644989,0.070549-1.2871094-0.155323-1.7459106-0.6141014
		c-0.4587708-0.4587822-0.6846313-1.1009293-0.6141052-1.7458992V40.9588966c0-7.0699997-1.6000061-9.6200008-6-9.6200008
		c-4.5700073,0-6.5499878,3.0599995-6.5499878,10.0000019v10.5c0.0705566,0.6449661-0.1553345,1.2871132-0.6141052,1.7458954
		s-1.1009216,0.6846504-1.7459106,0.6141014h-0.5699768c-0.6433411,0.067276-1.2825928-0.1600456-1.7390137-0.6184006
		c-0.4563904-0.4583549-0.6809998-1.0985565-0.6109924-1.7415962V29.598896
		c-0.0700073-0.6430416,0.1546021-1.2832413,0.6109924-1.7415981c0.4564209-0.4583549,1.0956726-0.6856766,1.7390137-0.6184006
		h0.5699768c0.65625-0.0940819,1.3190613,0.1213017,1.7946472,0.5831833
		c0.4755554,0.4618816,0.7102356,1.1180992,0.635376,1.7768154v2.7299995
		c1.2144165-3.4540062,4.5417786-5.7101345,8.1999817-5.5599995c4.5200195,0,6.7400208,1.7000008,8.2000122,6.4100018
		c1.269989-3.6300011,4.8500061-6.460001,9.8999939-6.460001H325.9500122z"/>
	<path id="Path_4_" fill="#444A50" d="M285.5599976,27.2388973c0.6433411-0.067276,1.2825623,0.1600456,1.7389832,0.6184006
		c0.4564209,0.4583569,0.6810303,1.0985565,0.6110229,1.7415981v22.2400017
		c0.0700073,0.6430397-0.1546021,1.2832413-0.6110229,1.7415962s-1.0956421,0.6856766-1.7389832,0.6184006h-0.5700073
		c-0.6449585,0.070549-1.2871094-0.1553192-1.7458801-0.6141014c-0.4588013-0.4587822-0.6846619-1.1009293-0.6141052-1.7458954
		v-2.6800003c-1.2200012,3.1299973-4.2799988,5.5099983-8.8099976,5.5099983
		c-7.4500122,0-10.8900146-4.2900009-10.8900146-12.8199997v-12.25c-0.0705261-0.644968,0.1553345-1.2871151,0.6141052-1.7458954
		c0.4588013-0.4587822,1.1009216-0.6846523,1.7459106-0.6141033h0.5699768
		c0.6433411-0.067276,1.2825928,0.1600456,1.7390137,0.6184006c0.4563904,0.4583569,0.6809998,1.0985565,0.6109924,1.7415981
		v11.8300018c0,5.8899994,2.2600098,8.6699982,7.2600098,8.6699982s7.1600037-3.3499985,7.1600037-9.2900009V29.598896
		c-0.0705566-0.644968,0.155304-1.2871151,0.6141052-1.7458954c0.4587708-0.4587822,1.1009216-0.6846523,1.7458801-0.6141033
		H285.5599976z"/>
	<path id="Path_5_" fill="#444A50" d="M257.4700012,26.9088955c0.6694641-0.0751591,1.3334045,0.181778,1.7778625,0.6880341
		c0.444458,0.5062542,0.6133118,1.1978512,0.4521484,1.8519669v0.3799992c-0.1500244,1.5100002-1,2.0799999-2.6000061,2.0799999
		c-4.4300079,0.0900002-6.5500031,3.3000011-6.5500031,9.0000019v11c0.0700073,0.6430397-0.1546021,1.2832413-0.6110077,1.7415962
		c-0.4564209,0.4583549-1.0956573,0.6856766-1.7389984,0.6184044h-0.5699921
		c-0.6449738,0.0705452-1.2871246-0.155323-1.7458954-0.6141052c-0.458786-0.4587822-0.6846619-1.1009293-0.6141052-1.7458954
		V29.598896c-0.0705566-0.644968,0.1553192-1.2871151,0.6141052-1.7458954
		c0.4587708-0.4587822,1.1009216-0.6846523,1.7458954-0.6141033h0.5699921
		c0.6286316-0.0814075,1.2602539,0.1268845,1.7171326,0.5662746c0.4568939,0.4393902,0.689682,1.0623894,0.6328735,1.6937237
		v2.2600002c0.9915924-2.9961166,3.8464966-4.9741631,6.9999847-4.8500004H257.4700012z"/>
	<path id="Shape_2_" fill="#444A50" d="M212.6999969,40.718895c0-9.7099991,6.7400055-13.9999981,13.6200104-13.9999981
		c6.8799896,0,13.6699982,4.289999,13.6699982,13.9999981s-6.7900085,14.0900002-13.6699982,14.0900002
		C219.4400024,54.8088951,212.6999969,50.518898,212.6999969,40.718895z M234.6999969,40.718895
		c0-5.8899994-3.3899994-9.5199986-8.3899994-9.5199986s-8.3399963,3.5799999-8.3399963,9.5199986
		s3.3399963,9.5699997,8.3899994,9.5699997S234.6999969,46.6588974,234.6999969,40.718895z"/>
	<path id="Path_6_" fill="#444A50" d="M204.7799988,27.2388973c0.6449738-0.070549,1.2871094,0.1553211,1.7458954,0.6141033
		c0.458786,0.4587803,0.6846466,1.1009274,0.6141052,1.7458954v22.2400017
		c0.0705414,0.6449661-0.1553192,1.2871132-0.6141052,1.7458954s-1.1009216,0.6846504-1.7458954,0.6141014h-0.5599976
		c-0.6449738,0.070549-1.2871094-0.1553192-1.7458954-0.6141014s-0.6846466-1.1009293-0.6141052-1.7458954v-2.6800003
		c-1.2299957,3.1299973-4.2899933,5.5099983-8.8099976,5.5099983c-7.4499969,0-10.8899994-4.2900009-10.8899994-12.8199997v-12.25
		c-0.0700073-0.6430416,0.1546021-1.2832413,0.6110077-1.7415981c0.4564209-0.4583549,1.0956573-0.6856766,1.7389832-0.6184006
		h0.5700073c0.6449738-0.070549,1.2871094,0.1553211,1.7458954,0.6141033
		c0.458786,0.4587803,0.6846466,1.1009274,0.6141052,1.7458954v11.8300018c0,5.8899994,2.2599945,8.6800003,7.2599945,8.6800003
		s7.1699982-3.3500023,7.1699982-9.2900009V29.598896c-0.0705414-0.644968,0.1553345-1.2871151,0.6141052-1.7458954
		c0.458786-0.4587822,1.1009369-0.6846523,1.7458954-0.6141033H204.7799988z"/>
	<path id="Shape_3_" fill="#444A50" d="M177.1199951,37.1888962c0,10.1399994-5.1100006,15.420002-11.6399994,17L167.75,57.6788979
		c1.3200073,2,1.6499939,2.8699989-0.9400024,2.8699989h-1.6999969c-1.1766205,0.1371918-2.3166351-0.4626083-2.8699951-1.5100021
		l-2.0800018-4.329998l0,0c-8.1999969-0.3100014-15.230011-5.5100021-15.230011-17.5100021
		c0-12.1699982,7.5900116-17.4899979,16.1200104-17.4899979s16.0699921,5.3199997,16.0699921,17.4899979V37.1888962z
		 M171.6499939,37.1888962c0-7.8799992-4.1499939-12.539999-10.5999908-12.539999s-10.75,4.6199989-10.75,12.539999
		s4,12.5800018,10.6499939,12.5800018c6.6500092,0,10.75-4.5200005,10.75-12.5800018H171.6499939z"/>
	<path id="Shape_4_" fill="#D40075" d="M0,57.8588982c0.3-15,5.1900001-28.3300018,15.4799995-39.4400024
		C23.625967,9.6339684,34.3267441,3.6311786,46.0699997,1.2588965c4.5001411-0.9840107,9.1068153-1.3939409,13.7099991-1.22
		C73.8642502,0.384578,87.3007202,6.0262532,97.4100037,15.8388968c8.9708939,8.4239683,15.003067,19.5033989,17.2099991,31.6099968
		c0.8318939,4.0779228,1.1676636,8.2414703,1,12.4000015c-0.2551956,5.015583-1.1456375,9.9785347-2.6500015,14.7700005
		c-0.149086,0.4171371-0.2660904,0.845047-0.3499985,1.2799988c-0.1704178,1.1802063-1.0413284,2.1382141-2.2000046,2.4199982
		c-1.3733673,0.5146561-2.8866272,0.5146561-4.2599945,0c-0.5405579-0.1810226-1.0235825-0.5018845-1.4000015-0.9300003
		c-3.0392227-3.6149673-7.3627548-5.9093781-12.0600052-6.3999939c-9.8999939-1.2099991-17.2799988,5.3299942-20,11.1199951
		c-3.3251953,7.107933-2.0854568,15.5145264,3.1500015,21.3600006c2.8869324,3.3595276,6.8610916,5.5996323,11.2300034,6.3300018
		c4.9209137,0.9721985,10.0247574-0.1354446,14.0999985-3.0599976c0.6431046-0.4911194,1.4601974-0.6954575,2.2587738-0.5648804
		c0.7985764,0.1305695,1.5080338,0.5845108,1.9612274,1.2548752c0.791481,1.3304977,0.3895493,3.0486679-0.9100037,3.8899994
		c-3.7202759,2.6265717-8.1197815,4.1231689-12.6699982,4.3100052c-4.6480865,0.3130035-9.2826996-0.7811813-13.3000031-3.1399994
		c-0.3963165-0.2555923-0.8916855-0.3040085-1.3299942-0.1300049c-3.9385071,1.4085007-8.0195465,2.3809738-12.1700058,2.9000015
		c-3.2276955,0.3914642-6.483551,0.4985428-9.7299957,0.3199997c-13.9935799-0.7023544-27.2770481-6.3760223-37.4599991-16
		C9.214016,91.4683151,3.3650858,80.8548889,1.11,69.2388992C0.3749804,65.4900742,0.0032593,61.6790962,0,57.8588982z
		 M57.8300018,109.8588943c4.5361938-0.0093613,9.0526581-0.5974426,13.4399948-1.75
		c0.8800049-0.2299957,0.9100037-0.3300018,0.3100052-1c-1.5947571-1.8444443-2.9211731-3.9047699-3.9400024-6.1199951
		c-2.3799973-5.3000031-3.4000015-10.8000031-1.9400024-16.5300064c1.6713638-6.9944229,6.2347794-12.9498367,12.5537109-16.3830032
		s13.7986526-4.0209579,20.5762939-1.6169968c2.9552994,1.0224915,5.6877365,2.600853,8.0499954,4.6500015
		c0.8600006,0.7600021,0.9000015,0.7400055,1.1900024-0.409996l0.3600006-1.4300003
		c0.908844-3.6796494,1.3986206-7.4502754,1.4599991-11.2400017c0.0214386-2.7339058-0.2230453-5.4634209-0.7299957-8.1500015
		C107.3353043,38.2914696,101.6390686,27.6639099,93,19.7288971C80.6999969,8.348896,66.0599976,4.0088964,49.5499992,6.5388966
		c-11.5632973,1.7556658-22.1629257,7.4582663-30,16.1399994C9.8699999,33.1088982,5.48,45.4888954,5.9099998,59.6088982
		c0.3757091,13.1096916,5.7407885,25.5817146,15,34.8699989c10.1900005,10.159996,22.5999985,15.0599976,36.920002,15.3600006
		V109.8588943z"/>
</g>
</svg>
